#Comment line ignore any data following # character 
#Hierarchical Translation and Rotation (.htr) file 
[Header]	
#Header keywords are followed by a single value 
FileType HTR		#Single word string
DataType HTRS		#Translation followed by rotation and scale data
FileVersion 1		#integer
NumSegments 84		#integer
NumFrames 2		#integer
DataFrameRate 30		#integer, data frame rate in this file
EulerRotationOrder ZYX
CalibrationUnits mm
RotationUnits Degrees
GlobalAxisofGravity Y
BoneLengthAxis Y
ScaleFactor 1.00
[SegmentNames&Hierarchy]
#CHILD	PARENT
MASTER GLOBAL
root MASTER
chest root
L_mid_tent01 root
R_mid_tent01 root
spine01 root
Bip01_Neck chest
L_humerus chest
R_humerus chest
weapon_bone chest
Bip01_Head Bip01_Neck
eye_left_bone Bip01_Head
eye_right_bone Bip01_Head
L_forearm L_humerus
L_front_hand L_forearm
L_weapon_bone L_forearm
L_front_hand01_01 L_front_hand
L_front_hand02_01 L_front_hand
L_front_hand03_01 L_front_hand
L_front_hand01_02 L_front_hand01_01
L_front_hand02_02 L_front_hand02_01
L_front_hand03_02 L_front_hand03_01
R_forearm R_humerus
R_front_hand R_forearm
R_weapon_bone R_forearm
R_front_hand01_01 R_front_hand
R_front_hand02_01 R_front_hand
R_front_hand03_01 R_front_hand
R_front_hand01_02 R_front_hand01_01
R_front_hand02_02 R_front_hand02_01
R_front_hand03_02 R_front_hand03_01
null_rope01_connect L_mid_tent01
Rope1_Seg01 null_rope01_connect
Rope1_Seg02 Rope1_Seg01
Rope1_Seg03 Rope1_Seg02
Rope1_Seg04 Rope1_Seg03
Rope1_Seg05 Rope1_Seg04
Rope1_Seg06 Rope1_Seg05
Rope1_Seg07 Rope1_Seg06
Rope1_Seg09 Rope1_Seg07
L_mid_hand01 Rope1_Seg09
L_mid_hand02 Rope1_Seg09
L_mid_hand03 Rope1_Seg09
null_rope02_connect R_mid_tent01
Rope2_Seg01 null_rope02_connect
Rope2_Seg02 Rope2_Seg01
Rope2_Seg03 Rope2_Seg02
Rope2_Seg04 Rope2_Seg03
Rope2_Seg05 Rope2_Seg04
Rope2_Seg06 Rope2_Seg05
Rope2_Seg07 Rope2_Seg06
Rope2_Seg09 Rope2_Seg07
R_mid_hand01 Rope2_Seg09
R_mid_hand02 Rope2_Seg09
R_mid_hand03 Rope2_Seg09
spine02 spine01
spine03 spine02
pelvis spine03
null_rope03_connect pelvis
null_rope04_connect pelvis
Rope3_Seg01 null_rope03_connect
Rope3_Seg02 Rope3_Seg01
Rope3_Seg03 Rope3_Seg02
Rope3_Seg04 Rope3_Seg03
Rope3_Seg05 Rope3_Seg04
Rope3_Seg06 Rope3_Seg05
Rope3_Seg07 Rope3_Seg06
Rope3_Seg08 Rope3_Seg07
Rope3_Seg09 Rope3_Seg08
R_rear_hand01 Rope3_Seg09
R_rear_hand02 Rope3_Seg09
R_rear_hand03 Rope3_Seg09
Rope4_Seg01 null_rope04_connect
Rope4_Seg02 Rope4_Seg01
Rope4_Seg03 Rope4_Seg02
Rope4_Seg04 Rope4_Seg03
Rope4_Seg05 Rope4_Seg04
Rope4_Seg06 Rope4_Seg05
Rope4_Seg07 Rope4_Seg06
Rope4_Seg08 Rope4_Seg07
Rope4_Seg09 Rope4_Seg08
L_rear_hand01 Rope4_Seg09
L_rear_hand02 Rope4_Seg09
L_rear_hand03 Rope4_Seg09
[BasePosition]
#SegmentName Tx, Ty, Tz, Rx, Ry, Rz, BoneLength
MASTER 0.000000 0.000000 0.000000 -90.000000 0.000000 0.000000 10.000000 
root 0.000000 0.000000 0.000000 0.000000 0.000000 0.000000 10.000000 
chest 0.000000 0.000000 0.000000 0.000000 0.000000 0.000000 10.000000 
L_mid_tent01 0.000000 0.000000 0.000000 0.000000 0.000000 0.000000 10.000000 
R_mid_tent01 0.000000 0.000000 0.000000 0.000000 0.000000 0.000000 10.000000 
spine01 0.000000 0.000000 0.000000 0.000000 0.000000 0.000000 10.000000 
Bip01_Neck 0.000000 0.000000 0.000000 0.000000 0.000000 0.000000 10.000000 
L_humerus 0.000000 0.000000 0.000000 0.000000 0.000000 0.000000 10.000000 
R_humerus 0.000000 0.000000 0.000000 0.000000 0.000000 0.000000 10.000000 
weapon_bone 0.000000 0.000000 0.000000 0.000000 0.000000 0.000000 10.000000 
Bip01_Head 0.000000 0.000000 0.000000 0.000000 0.000000 0.000000 10.000000 
eye_left_bone 0.000000 0.000000 0.000000 0.000000 0.000000 0.000000 10.000000 
eye_right_bone 0.000000 0.000000 0.000000 0.000000 0.000000 0.000000 10.000000 
L_forearm 0.000000 0.000000 0.000000 0.000000 0.000000 0.000000 10.000000 
L_front_hand 0.000000 0.000000 0.000000 0.000000 0.000000 0.000000 10.000000 
L_weapon_bone 0.000000 0.000000 0.000000 0.000000 0.000000 0.000000 10.000000 
L_front_hand01_01 0.000000 0.000000 0.000000 0.000000 0.000000 0.000000 10.000000 
L_front_hand02_01 0.000000 0.000000 0.000000 0.000000 0.000000 0.000000 10.000000 
L_front_hand03_01 0.000000 0.000000 0.000000 0.000000 0.000000 0.000000 10.000000 
L_front_hand01_02 0.000000 0.000000 0.000000 0.000000 0.000000 0.000000 10.000000 
L_front_hand02_02 0.000000 0.000000 0.000000 0.000000 0.000000 0.000000 10.000000 
L_front_hand03_02 0.000000 0.000000 0.000000 0.000000 0.000000 0.000000 10.000000 
R_forearm 0.000000 0.000000 0.000000 0.000000 0.000000 0.000000 10.000000 
R_front_hand 0.000000 0.000000 0.000000 0.000000 0.000000 0.000000 10.000000 
R_weapon_bone 0.000000 0.000000 0.000000 0.000000 0.000000 0.000000 10.000000 
R_front_hand01_01 0.000000 0.000000 0.000000 0.000000 0.000000 0.000000 10.000000 
R_front_hand02_01 0.000000 0.000000 0.000000 0.000000 0.000000 0.000000 10.000000 
R_front_hand03_01 0.000000 0.000000 0.000000 0.000000 0.000000 0.000000 10.000000 
R_front_hand01_02 0.000000 0.000000 0.000000 0.000000 0.000000 0.000000 10.000000 
R_front_hand02_02 0.000000 0.000000 0.000000 0.000000 0.000000 0.000000 10.000000 
R_front_hand03_02 0.000000 0.000000 0.000000 0.000000 0.000000 0.000000 10.000000 
null_rope01_connect 0.000000 0.000000 0.000000 0.000000 0.000000 0.000000 10.000000 
Rope1_Seg01 0.000000 0.000000 0.000000 0.000000 0.000000 0.000000 10.000000 
Rope1_Seg02 0.000000 0.000000 0.000000 0.000000 0.000000 0.000000 10.000000 
Rope1_Seg03 0.000000 0.000000 0.000000 0.000000 0.000000 0.000000 10.000000 
Rope1_Seg04 0.000000 0.000000 0.000000 0.000000 0.000000 0.000000 10.000000 
Rope1_Seg05 0.000000 0.000000 0.000000 0.000000 0.000000 0.000000 10.000000 
Rope1_Seg06 0.000000 0.000000 0.000000 0.000000 0.000000 0.000000 10.000000 
Rope1_Seg07 0.000000 0.000000 0.000000 0.000000 0.000000 0.000000 10.000000 
Rope1_Seg09 0.000000 0.000000 0.000000 0.000000 0.000000 0.000000 10.000000 
L_mid_hand01 0.000000 0.000000 0.000000 0.000000 0.000000 0.000000 10.000000 
L_mid_hand02 0.000000 0.000000 0.000000 0.000000 0.000000 0.000000 10.000000 
L_mid_hand03 0.000000 0.000000 0.000000 0.000000 0.000000 0.000000 10.000000 
null_rope02_connect 0.000000 0.000000 0.000000 0.000000 0.000000 0.000000 10.000000 
Rope2_Seg01 0.000000 0.000000 0.000000 0.000000 0.000000 0.000000 10.000000 
Rope2_Seg02 0.000000 0.000000 0.000000 0.000000 0.000000 0.000000 10.000000 
Rope2_Seg03 0.000000 0.000000 0.000000 0.000000 0.000000 0.000000 10.000000 
Rope2_Seg04 0.000000 0.000000 0.000000 0.000000 0.000000 0.000000 10.000000 
Rope2_Seg05 0.000000 0.000000 0.000000 0.000000 0.000000 0.000000 10.000000 
Rope2_Seg06 0.000000 0.000000 0.000000 0.000000 0.000000 0.000000 10.000000 
Rope2_Seg07 0.000000 0.000000 0.000000 0.000000 0.000000 0.000000 10.000000 
Rope2_Seg09 0.000000 0.000000 0.000000 0.000000 0.000000 0.000000 10.000000 
R_mid_hand01 0.000000 0.000000 0.000000 0.000000 0.000000 0.000000 10.000000 
R_mid_hand02 0.000000 0.000000 0.000000 0.000000 0.000000 0.000000 10.000000 
R_mid_hand03 0.000000 0.000000 0.000000 0.000000 0.000000 0.000000 10.000000 
spine02 0.000000 0.000000 0.000000 0.000000 0.000000 0.000000 10.000000 
spine03 0.000000 0.000000 0.000000 0.000000 0.000000 0.000000 10.000000 
pelvis 0.000000 0.000000 0.000000 0.000000 0.000000 0.000000 10.000000 
null_rope03_connect 0.000000 0.000000 0.000000 0.000000 0.000000 0.000000 10.000000 
null_rope04_connect 0.000000 0.000000 0.000000 0.000000 0.000000 0.000000 10.000000 
Rope3_Seg01 0.000000 0.000000 0.000000 0.000000 0.000000 0.000000 10.000000 
Rope3_Seg02 0.000000 0.000000 0.000000 0.000000 0.000000 0.000000 10.000000 
Rope3_Seg03 0.000000 0.000000 0.000000 0.000000 0.000000 0.000000 10.000000 
Rope3_Seg04 0.000000 0.000000 0.000000 0.000000 0.000000 0.000000 10.000000 
Rope3_Seg05 0.000000 0.000000 0.000000 0.000000 0.000000 0.000000 10.000000 
Rope3_Seg06 0.000000 0.000000 0.000000 0.000000 0.000000 0.000000 10.000000 
Rope3_Seg07 0.000000 0.000000 0.000000 0.000000 0.000000 0.000000 10.000000 
Rope3_Seg08 0.000000 0.000000 0.000000 0.000000 0.000000 0.000000 10.000000 
Rope3_Seg09 0.000000 0.000000 0.000000 0.000000 0.000000 0.000000 10.000000 
R_rear_hand01 0.000000 0.000000 0.000000 0.000000 0.000000 0.000000 10.000000 
R_rear_hand02 0.000000 0.000000 0.000000 0.000000 0.000000 0.000000 10.000000 
R_rear_hand03 0.000000 0.000000 0.000000 0.000000 0.000000 0.000000 10.000000 
Rope4_Seg01 0.000000 0.000000 0.000000 0.000000 0.000000 0.000000 10.000000 
Rope4_Seg02 0.000000 0.000000 0.000000 0.000000 0.000000 0.000000 10.000000 
Rope4_Seg03 0.000000 0.000000 0.000000 0.000000 0.000000 0.000000 10.000000 
Rope4_Seg04 0.000000 0.000000 0.000000 0.000000 0.000000 0.000000 10.000000 
Rope4_Seg05 0.000000 0.000000 0.000000 0.000000 0.000000 0.000000 10.000000 
Rope4_Seg06 0.000000 0.000000 0.000000 0.000000 0.000000 0.000000 10.000000 
Rope4_Seg07 0.000000 0.000000 0.000000 0.000000 0.000000 0.000000 10.000000 
Rope4_Seg08 0.000000 0.000000 0.000000 0.000000 0.000000 0.000000 10.000000 
Rope4_Seg09 0.000000 0.000000 0.000000 0.000000 0.000000 0.000000 10.000000 
L_rear_hand01 0.000000 0.000000 0.000000 0.000000 0.000000 0.000000 10.000000 
L_rear_hand02 0.000000 0.000000 0.000000 0.000000 0.000000 0.000000 10.000000 
L_rear_hand03 0.000000 0.000000 0.000000 0.000000 0.000000 0.000000 10.000000 
#Beginning of Data. Separated by tabs
#Fr	Tx	Ty	Tz	Rx	Ry	Rz	SF
[MASTER]
24 0.000000 0.000000 0.000000 0.001660 0.001660 0.001660 0.000000
25 0.000000 0.000000 0.000000 0.001660 0.001660 0.001660 0.000000
[root]
24 -85.966904 -63.060455 1117.018555 -91.494331 -28.067072 -90.487854 1122.095093
25 -92.604721 -63.131466 1098.678467 -91.462311 -27.859465 -90.558800 1104.380249
[chest]
24 -84.512650 -34.090519 0.000000 -4.176195 -0.594011 178.550095 91.129311
25 -84.512650 -34.090519 0.000000 -3.881820 -1.070146 177.827332 91.129311
[L_mid_tent01]
24 27.299522 22.177408 -249.918015 -20.293726 39.151962 9.391746 252.380890
25 27.299522 22.177402 -249.918015 -20.873661 35.219223 1.285362 252.380890
[R_mid_tent01]
24 23.228794 24.509907 226.238495 -165.442245 -45.543514 20.418205 228.744751
25 23.228794 24.509907 226.238495 -162.673401 -44.006119 14.297738 228.744751
[spine01]
24 -0.361383 -0.195265 0.000000 0.036743 0.388436 12.432989 0.410763
25 -0.361383 -0.195265 0.000000 -0.011015 0.381817 12.296715 0.410763
[Bip01_Neck]
24 165.484543 71.581718 0.000119 175.896118 1.177290 24.871183 180.302734
25 165.484543 71.581718 0.000119 175.896118 1.177290 24.871183 180.302734
[L_humerus]
24 -13.983130 -135.272980 -120.471481 -87.059952 0.979303 -170.816788 181.680161
25 -13.983130 -135.272980 -120.471481 -84.121826 1.076355 -168.766495 181.680161
[R_humerus]
24 -13.983309 -135.273102 125.287651 98.004593 2.218486 -174.894638 184.909012
25 -13.983309 -135.273102 125.287651 95.557472 1.442005 -173.370438 184.909012
[weapon_bone]
24 235.964890 -300.705902 0.000000 0.000000 -89.951546 -128.212341 382.234833
25 235.964890 -300.705902 0.000000 0.000000 -89.951546 -128.212341 382.234833
[Bip01_Head]
24 240.691895 160.209579 7.883578 0.961221 3.401200 -70.717461 289.243591
25 237.678925 164.387970 6.181173 1.102586 3.182007 -63.588982 289.055145
[eye_left_bone]
24 -24.626970 125.451866 -64.772606 0.000000 -90.000000 -99.840431 143.318359
25 -24.626970 125.451866 -64.772606 0.000000 -90.000000 -99.840431 143.318359
[eye_right_bone]
24 -24.626970 125.451866 64.327362 0.000000 -89.960434 80.159386 143.117676
25 -24.626970 125.451866 64.327362 0.000000 -89.960434 80.159386 143.117676
[L_forearm]
24 322.776093 0.000000 -0.000119 0.000122 0.002344 -84.056877 322.776093
25 322.776093 0.000000 -0.000119 0.000112 0.002345 -84.539581 322.776093
[L_front_hand]
24 241.149185 -0.042021 -3.300071 -178.198059 -1.375980 -43.972172 241.171753
25 241.149185 -0.042021 -3.300071 -178.111603 -1.255034 -47.710327 241.171753
[L_weapon_bone]
24 156.183838 0.000000 0.000000 0.001862 0.001429 14.980260 156.183838
25 156.183838 0.000000 0.000000 0.001832 0.001468 12.603934 156.183838
[L_front_hand01_01]
24 86.095154 20.947098 -0.655860 0.405585 -0.442306 -4.620490 88.609184
25 86.095154 20.947098 -0.655860 0.405585 -0.442306 -4.620490 88.609184
[L_front_hand02_01]
24 86.935165 -11.437475 24.513514 116.959450 3.630818 1.495453 91.046425
25 86.935165 -11.437475 24.513514 116.959450 3.630817 1.495453 91.046425
[L_front_hand03_01]
24 86.637497 -14.123976 -20.424902 -118.420097 -4.656303 -0.152527 90.126129
25 86.637497 -14.123976 -20.424902 -118.420097 -4.656303 -0.152527 90.126129
[L_front_hand01_02]
24 71.020905 -0.000179 0.000030 0.001534 0.001777 -8.378850 71.020905
25 71.020905 -0.000179 0.000030 0.001534 0.001777 -8.378848 71.020905
[L_front_hand02_02]
24 71.020927 -0.000119 0.000060 0.001534 0.001777 -8.378850 71.020927
25 71.020927 -0.000119 0.000060 0.001534 0.001777 -8.378848 71.020927
[L_front_hand03_02]
24 71.020905 -0.000060 0.000060 0.001534 0.001777 -8.378850 71.020905
25 71.020905 -0.000060 0.000060 0.001534 0.001777 -8.378848 71.020905
[R_forearm]
24 322.776428 -0.000060 0.000030 0.208179 -0.054921 -75.992653 322.776428
25 322.776428 -0.000060 0.000030 0.208412 -0.054030 -76.482986 322.776428
[R_front_hand]
24 238.847015 -0.006795 2.210259 -1.724828 -0.123712 -82.821442 238.857239
25 238.847015 -0.006795 2.210259 -1.702877 -0.301883 -88.818420 238.857239
[R_weapon_bone]
24 155.664093 0.002503 -0.000030 0.003207 0.001806 -112.380386 155.664078
25 155.664093 0.002503 -0.000030 0.003257 0.001714 -109.122795 155.664078
[R_front_hand01_01]
24 87.624611 14.231146 22.918642 -116.960205 3.496675 -1.324138 91.683487
25 87.624611 14.231146 22.918642 -116.960213 3.496675 -1.324139 91.683487
[R_front_hand02_01]
24 89.356956 14.367283 -19.491137 118.419647 -4.257089 0.609827 92.579636
25 89.356956 14.367283 -19.491137 118.419647 -4.257089 0.609827 92.579636
[R_front_hand03_01]
24 87.286232 -22.307278 -0.143439 -0.387970 -0.231462 4.232001 90.091743
25 87.286232 -22.307278 -0.143439 -0.387970 -0.231462 4.232001 90.091743
[R_front_hand01_02]
24 71.020905 0.000060 0.000119 0.001777 0.001534 8.377220 71.020905
25 71.020905 0.000060 0.000119 0.001777 0.001534 8.377220 71.020905
[R_front_hand02_02]
24 71.020844 -0.000030 -0.000119 0.001777 0.001534 8.377220 71.020836
25 71.020844 -0.000030 -0.000119 0.001777 0.001534 8.377220 71.020836
[R_front_hand03_02]
24 71.020905 0.000000 0.000030 0.001777 0.001534 8.377220 71.020905
25 71.020905 0.000000 0.000030 0.001777 0.001534 8.377220 71.020905
[null_rope01_connect]
24 328.732483 0.000000 -0.000238 -102.754890 -45.221889 -155.437729 328.732483
25 328.732483 0.000000 -0.000238 -98.188896 -48.358517 -151.518005 328.732483
[Rope1_Seg01]
24 0.000000 0.000000 0.000000 64.742462 -42.745308 -136.989456 0.000000
25 0.000000 0.000000 0.000000 72.913589 -48.375786 -146.549973 0.000000
[Rope1_Seg02]
24 139.999863 -0.000179 0.000000 -4.407638 13.030717 -2.848391 139.999863
25 139.999863 -0.000179 0.000000 -2.815697 12.318256 -3.278153 139.999863
[Rope1_Seg03]
24 139.999924 0.000060 -0.000060 -12.008703 19.686377 -2.896759 139.999924
25 139.999924 0.000060 -0.000060 -9.583200 20.743063 -4.702726 139.999924
[Rope1_Seg04]
24 139.999924 -0.000060 -0.000119 -30.741156 26.479410 1.000301 139.999924
25 139.999924 -0.000060 -0.000119 -33.668064 31.961325 -2.652874 139.999924
[Rope1_Seg05]
24 139.999832 0.000119 -0.000060 -23.361456 13.275394 9.395869 139.999832
25 139.999832 0.000119 -0.000060 -31.425602 18.899359 10.832468 139.999832
[Rope1_Seg06]
24 139.999954 0.000119 -0.000060 -3.843861 0.631727 3.578646 139.999954
25 139.999954 0.000119 -0.000060 -2.116331 0.236787 2.015582 139.999954
[Rope1_Seg07]
24 139.999985 0.000060 0.000000 1.404094 -1.607885 0.164976 139.999985
25 139.999985 0.000060 0.000000 9.535993 -3.908313 -5.430909 139.999985
[Rope1_Seg09]
24 121.602913 0.000119 -0.000089 -89.793175 -1.359789 0.847147 121.602913
25 121.602913 0.000119 -0.000089 -89.793175 -1.359789 0.847147 121.602913
[L_mid_hand01]
24 103.859421 1.038730 8.195221 105.620987 -22.988335 -6.761933 104.187431
25 103.859421 1.038730 8.195221 105.621002 -22.988335 -6.761935 104.187431
[L_mid_hand02]
24 105.572853 -4.139662 -10.864139 -139.491974 20.327143 -21.528740 106.211075
25 105.572853 -4.139662 -10.864139 -139.491974 20.327141 -21.528740 106.211075
[L_mid_hand03]
24 104.641464 17.579376 -3.913581 -17.354424 7.254999 25.905664 106.179977
25 104.641464 17.579376 -3.913581 -17.354424 7.255000 25.905664 106.179977
[null_rope02_connect]
24 328.732849 0.000179 -0.000119 -101.364388 44.115314 -12.417194 328.732849
25 328.732849 0.000179 -0.000119 -99.609535 44.810596 -15.674603 328.732849
[Rope2_Seg01]
24 0.000055 0.000103 0.000035 43.335243 -42.356365 -60.581238 0.000122
25 0.000059 0.000104 0.000031 46.547768 -51.138069 -65.093681 0.000124
[Rope2_Seg02]
24 139.999741 -0.000060 -0.000119 3.416560 9.100003 -10.926981 139.999756
25 139.999741 -0.000060 -0.000119 1.862034 10.291382 -11.392030 139.999756
[Rope2_Seg03]
24 140.000107 0.000030 0.000000 5.896964 10.936003 -11.389610 140.000107
25 140.000107 0.000030 0.000000 6.520252 14.998563 -16.305529 140.000107
[Rope2_Seg04]
24 139.999802 0.000000 -0.000060 26.386438 8.590169 -17.945591 139.999802
25 139.999802 0.000000 -0.000060 28.104101 12.747285 -20.155611 139.999802
[Rope2_Seg05]
24 139.999985 -0.000060 0.000119 35.125576 -7.966196 -16.453884 139.999985
25 139.999985 -0.000060 0.000119 25.451263 -7.137130 -10.168926 139.999985
[Rope2_Seg06]
24 139.999893 -0.000030 -0.000119 8.559965 -5.959605 -3.593704 139.999893
25 139.999893 -0.000030 -0.000119 6.391272 -5.015914 -1.909840 139.999893
[Rope2_Seg07]
24 139.999893 0.000060 -0.000060 3.673668 -3.209098 -1.586375 139.999893
25 139.999893 0.000060 -0.000060 3.676676 -2.604244 -1.457938 139.999893
[Rope2_Seg09]
24 121.338966 0.000089 -0.000060 33.793236 -1.359788 -0.847141 121.338966
25 121.338966 0.000089 -0.000060 33.793236 -1.359788 -0.847141 121.338966
[R_mid_hand01]
24 104.680779 11.144459 -10.335981 -44.070736 19.764444 21.986286 105.778534
25 104.680779 11.144459 -10.335981 -44.070736 19.764444 21.986286 105.778534
[R_mid_hand02]
24 104.070427 2.443552 8.231699 74.148849 -24.768806 7.320621 104.424065
25 104.070427 2.443552 8.231699 74.148865 -24.768816 7.320623 104.424065
[R_mid_hand03]
24 106.028137 -11.221827 -5.996406 -166.566208 8.416404 -28.789036 106.788818
25 106.028137 -11.221827 -5.996406 -166.566208 8.416404 -28.789036 106.788818
[spine02]
24 129.756927 0.001550 0.000119 -0.112561 -4.081010 -6.247128 129.756927
25 129.756927 0.001550 0.000119 -0.104277 -4.063210 -6.368488 129.756927
[spine03]
24 78.904678 0.036606 -2.059213 1.819726 -0.309441 14.180178 78.931557
25 78.925591 0.032979 -1.855148 1.849695 -0.594704 15.211013 78.947395
[pelvis]
24 169.435242 0.051022 0.000000 0.010908 1.909546 -3.428259 169.435257
25 169.435242 0.051022 0.000000 0.010271 2.025878 -3.523988 169.435257
[null_rope03_connect]
24 -1.257226 -2.466202 137.391083 127.585503 -88.910698 -26.546562 137.418976
25 -1.257226 -2.466202 137.391083 126.242020 -88.848526 -26.098976 137.418976
[null_rope04_connect]
24 -1.259640 -2.480268 -137.844437 127.585503 -88.910698 -26.546562 137.872513
25 -1.259640 -2.480268 -137.844437 126.242020 -88.848526 -26.098976 137.872513
[Rope3_Seg01]
24 0.000000 0.000000 0.000000 -144.531403 -34.908730 -57.185146 0.000000
25 0.000000 0.000000 0.000000 -145.385025 -38.341000 -58.507381 0.000000
[Rope3_Seg02]
24 139.999924 -0.000119 0.000060 1.982470 -3.707958 1.644958 139.999924
25 139.999924 -0.000119 0.000060 1.718114 -3.181894 1.804622 139.999924
[Rope3_Seg03]
24 139.999924 -0.000119 0.000119 2.622655 -4.778445 2.333380 139.999924
25 139.999924 -0.000119 0.000119 2.251202 -4.160676 2.533653 139.999924
[Rope3_Seg04]
24 139.999924 0.000119 0.000000 3.623701 -6.584812 3.560627 139.999924
25 139.999924 0.000119 0.000000 3.200000 -6.160595 3.932839 139.999924
[Rope3_Seg05]
24 139.999924 -0.000238 0.000060 6.645550 -12.062115 7.045917 139.999924
25 139.999924 -0.000238 0.000060 6.391526 -13.185118 8.181685 139.999924
[Rope3_Seg06]
24 139.999893 -0.000119 -0.000060 4.472439 -6.592568 6.296569 139.999893
25 139.999893 -0.000119 -0.000060 2.700207 -3.119409 5.879371 139.999893
[Rope3_Seg07]
24 139.999771 0.000060 -0.000119 -0.523095 3.289237 0.679335 139.999771
25 139.999771 0.000060 -0.000119 -3.793567 13.364450 -2.291414 139.999771
[Rope3_Seg08]
24 139.999985 -0.000060 0.000000 0.654635 1.250168 2.264352 139.999985
25 139.999985 -0.000060 0.000000 -0.816973 9.494707 1.437601 139.999985
[Rope3_Seg09]
24 90.185997 -0.000179 -0.000060 89.793228 -1.359877 -0.847183 90.185997
25 90.185997 -0.000179 -0.000060 89.793228 -1.359877 -0.847183 90.185997
[R_rear_hand01]
24 103.366196 -6.073594 -10.757982 -160.090088 14.865479 -24.717995 104.101845
25 103.366196 -6.073594 -10.757982 -160.090088 14.865479 -24.717995 104.101845
[R_rear_hand02]
24 100.509819 12.039542 -7.992327 -35.711582 16.148796 24.170401 101.543350
25 100.509819 12.039542 -7.992327 -35.711582 16.148800 24.170403 101.543350
[R_rear_hand03]
24 101.539970 5.215704 5.435467 83.699936 -25.497597 6.583542 101.819031
25 101.539970 5.215704 5.435467 83.699936 -25.497601 6.583544 101.819031
[Rope4_Seg01]
24 0.000010 0.000038 -0.000114 51.606995 -38.290062 -105.042244 0.000121
25 0.000010 0.000038 -0.000114 54.166504 -40.334530 -108.490005 0.000121
[Rope4_Seg02]
24 139.999985 0.000060 0.000119 -0.882397 0.483632 -4.251544 139.999985
25 139.999985 0.000060 0.000119 -1.130974 1.601795 -3.843382 139.999985
[Rope4_Seg03]
24 139.999924 0.000000 -0.000238 -1.376590 0.730637 -5.682664 139.999924
25 139.999924 0.000000 -0.000238 -1.533645 2.177998 -4.966149 139.999924
[Rope4_Seg04]
24 139.999985 0.000000 0.000119 -1.954427 -0.254444 -7.448559 139.999985
25 139.999985 0.000000 0.000119 -1.810614 1.674294 -6.052814 139.999985
[Rope4_Seg05]
24 139.999802 -0.000060 -0.000119 -3.105534 -2.239245 -10.254223 139.999802
25 139.999802 -0.000060 -0.000119 -2.307920 0.585879 -7.658546 139.999802
[Rope4_Seg06]
24 139.999924 0.000000 0.000060 -9.980420 14.941158 -15.878889 139.999924
25 139.999924 0.000000 0.000060 -6.813467 15.748177 -13.545699 139.999924
[Rope4_Seg07]
24 139.999802 0.000000 0.000000 -4.774202 19.767778 -9.974735 139.999802
25 139.999802 0.000000 0.000000 -2.777610 19.505302 -10.165221 139.999802
[Rope4_Seg08]
24 139.999924 0.000000 0.000119 -1.890965 8.173164 -4.746531 139.999924
25 139.999924 0.000000 0.000119 -1.025140 8.173305 -4.783475 139.999924
[Rope4_Seg09]
24 90.185791 0.000060 0.000060 -135.617828 2.228885 0.850567 90.185791
25 90.185791 0.000060 0.000060 -135.617828 2.228885 0.850567 90.185791
[L_rear_hand01]
24 101.696655 -8.392275 -7.654577 -36.242058 -14.765300 157.809067 102.329041
25 101.696655 -8.392275 -7.654577 -36.242062 -14.765304 157.809067 102.329041
[L_rear_hand02]
24 102.726799 -1.568258 5.773216 83.814362 23.151863 173.698151 102.900848
25 102.726799 -1.568258 5.773216 83.814362 23.151863 173.698151 102.900848
[L_rear_hand03]
24 104.552910 9.721220 -10.420293 -159.518845 -14.052428 -157.569275 105.519653
25 104.552910 9.721220 -10.420293 -159.518845 -14.052429 -157.569275 105.519653
